<?xml version="1.0" encoding="utf-8"?>
<!-- Generator: Adobe Illustrator 25.2.0, SVG Export Plug-In . SVG Version: 6.00 Build 0)  -->
<svg version="1.1" id="OBJECTS" xmlns="http://www.w3.org/2000/svg" xmlns:xlink="http://www.w3.org/1999/xlink" x="0px" y="0px"
	 viewBox="0 0 16 16" enable-background="new 0 0 16 16" xml:space="preserve">
<g>
	<g>
		<g id="Lock_Icon">
			<path fill="#FFFFFF" d="M12.82,6.69h-0.12V5.06c0-2.59-2.11-4.69-4.69-4.69c-2.59,0-4.69,2.11-4.69,4.69v1.63H3.18
				c-0.64,0-1.15,0.51-1.15,1.15v6.64c0,0.64,0.51,1.15,1.15,1.15h9.64c0.64,0,1.15-0.51,1.15-1.15V7.84
				C13.97,7.21,13.45,6.69,12.82,6.69z M8.91,12.93H7.09l0.4-1.94c-0.26-0.17-0.43-0.46-0.43-0.8c0-0.53,0.43-0.95,0.95-0.95
				c0.53,0,0.95,0.43,0.95,0.95c0,0.33-0.17,0.63-0.43,0.8L8.91,12.93z M10.97,6.69H5.03V5.06c0-1.64,1.33-2.97,2.97-2.97
				c1.64,0,2.97,1.33,2.97,2.97V6.69z"/>
		</g>
	</g>
</g>
</svg>
