<?xml version="1.0" encoding="utf-8"?>
<!-- Generator: Adobe Illustrator 25.2.0, SVG Export Plug-In . SVG Version: 6.00 Build 0)  -->
<svg version="1.1" id="OBJECTS" xmlns="http://www.w3.org/2000/svg" xmlns:xlink="http://www.w3.org/1999/xlink" x="0px" y="0px"
	 viewBox="0 0 16 16" enable-background="new 0 0 16 16" xml:space="preserve">
<g>
	<g>
		<g id="User_Icon">
			<path fill="#FFFFFF" d="M10,7.91C9.41,8.24,8.73,8.43,8,8.43c-0.73,0-1.41-0.19-2-0.52c-2.04,0.8-3.49,2.79-3.49,5.11v0.23
				c1.47,1.29,3.39,2.07,5.49,2.07c2.11,0,4.03-0.78,5.5-2.08v-0.23C13.49,10.69,12.04,8.71,10,7.91z M8,0.67
				c-2,0-3.62,1.62-3.62,3.62C4.38,6.28,6,7.9,8,7.9c2,0,3.62-1.62,3.62-3.62C11.62,2.29,10,0.67,8,0.67z"/>
		</g>
	</g>
</g>
</svg>
